<mxfile host="app.diagrams.net" modified="2020-12-10T21:11:01.394Z" agent="5.0 (Windows NT 10.0; Win64; x64) AppleWebKit/537.36 (KHTML, like Gecko) Chrome/87.0.4280.88 Safari/537.36" etag="5T7Zi_FZEI92UOwPd2px" version="13.9.8" type="github">
  <diagram id="jcdF8DI7jTxXCldyjuAF" name="Page-1">
    <mxGraphModel dx="1024" dy="529" grid="1" gridSize="10" guides="1" tooltips="1" connect="1" arrows="1" fold="1" page="1" pageScale="1" pageWidth="850" pageHeight="1100" math="0" shadow="0">
      <root>
        <mxCell id="0" />
        <mxCell id="1" parent="0" />
        <mxCell id="TwVaYqzp6_XDLZO7_l7G-58" style="edgeStyle=orthogonalEdgeStyle;rounded=0;orthogonalLoop=1;jettySize=auto;html=1;exitX=0.25;exitY=1;exitDx=0;exitDy=0;entryX=0.376;entryY=-0.022;entryDx=0;entryDy=0;entryPerimeter=0;endArrow=ERoneToMany;endFill=0;" edge="1" parent="1" source="TwVaYqzp6_XDLZO7_l7G-2" target="TwVaYqzp6_XDLZO7_l7G-28">
          <mxGeometry relative="1" as="geometry" />
        </mxCell>
        <mxCell id="TwVaYqzp6_XDLZO7_l7G-2" value="User" style="shape=table;startSize=30;container=1;collapsible=1;childLayout=tableLayout;fixedRows=1;rowLines=0;fontStyle=1;align=center;resizeLast=1;" vertex="1" parent="1">
          <mxGeometry x="150" y="480" width="180" height="160" as="geometry" />
        </mxCell>
        <mxCell id="TwVaYqzp6_XDLZO7_l7G-3" value="" style="shape=partialRectangle;collapsible=0;dropTarget=0;pointerEvents=0;fillColor=none;top=0;left=0;bottom=1;right=0;points=[[0,0.5],[1,0.5]];portConstraint=eastwest;" vertex="1" parent="TwVaYqzp6_XDLZO7_l7G-2">
          <mxGeometry y="30" width="180" height="30" as="geometry" />
        </mxCell>
        <mxCell id="TwVaYqzp6_XDLZO7_l7G-4" value="PK" style="shape=partialRectangle;connectable=0;fillColor=none;top=0;left=0;bottom=0;right=0;fontStyle=1;overflow=hidden;" vertex="1" parent="TwVaYqzp6_XDLZO7_l7G-3">
          <mxGeometry width="30" height="30" as="geometry" />
        </mxCell>
        <mxCell id="TwVaYqzp6_XDLZO7_l7G-5" value="User_id" style="shape=partialRectangle;connectable=0;fillColor=none;top=0;left=0;bottom=0;right=0;align=left;spacingLeft=6;fontStyle=5;overflow=hidden;" vertex="1" parent="TwVaYqzp6_XDLZO7_l7G-3">
          <mxGeometry x="30" width="150" height="30" as="geometry" />
        </mxCell>
        <mxCell id="TwVaYqzp6_XDLZO7_l7G-6" value="" style="shape=partialRectangle;collapsible=0;dropTarget=0;pointerEvents=0;fillColor=none;top=0;left=0;bottom=0;right=0;points=[[0,0.5],[1,0.5]];portConstraint=eastwest;" vertex="1" parent="TwVaYqzp6_XDLZO7_l7G-2">
          <mxGeometry y="60" width="180" height="30" as="geometry" />
        </mxCell>
        <mxCell id="TwVaYqzp6_XDLZO7_l7G-7" value="" style="shape=partialRectangle;connectable=0;fillColor=none;top=0;left=0;bottom=0;right=0;editable=1;overflow=hidden;" vertex="1" parent="TwVaYqzp6_XDLZO7_l7G-6">
          <mxGeometry width="30" height="30" as="geometry" />
        </mxCell>
        <mxCell id="TwVaYqzp6_XDLZO7_l7G-8" value="email: string" style="shape=partialRectangle;connectable=0;fillColor=none;top=0;left=0;bottom=0;right=0;align=left;spacingLeft=6;overflow=hidden;" vertex="1" parent="TwVaYqzp6_XDLZO7_l7G-6">
          <mxGeometry x="30" width="150" height="30" as="geometry" />
        </mxCell>
        <mxCell id="TwVaYqzp6_XDLZO7_l7G-9" value="" style="shape=partialRectangle;collapsible=0;dropTarget=0;pointerEvents=0;fillColor=none;top=0;left=0;bottom=0;right=0;points=[[0,0.5],[1,0.5]];portConstraint=eastwest;" vertex="1" parent="TwVaYqzp6_XDLZO7_l7G-2">
          <mxGeometry y="90" width="180" height="30" as="geometry" />
        </mxCell>
        <mxCell id="TwVaYqzp6_XDLZO7_l7G-10" value="" style="shape=partialRectangle;connectable=0;fillColor=none;top=0;left=0;bottom=0;right=0;editable=1;overflow=hidden;" vertex="1" parent="TwVaYqzp6_XDLZO7_l7G-9">
          <mxGeometry width="30" height="30" as="geometry" />
        </mxCell>
        <mxCell id="TwVaYqzp6_XDLZO7_l7G-11" value="Row 2" style="shape=partialRectangle;connectable=0;fillColor=none;top=0;left=0;bottom=0;right=0;align=left;spacingLeft=6;overflow=hidden;" vertex="1" parent="TwVaYqzp6_XDLZO7_l7G-9">
          <mxGeometry x="30" width="150" height="30" as="geometry" />
        </mxCell>
        <mxCell id="TwVaYqzp6_XDLZO7_l7G-12" value="" style="shape=partialRectangle;collapsible=0;dropTarget=0;pointerEvents=0;fillColor=none;top=0;left=0;bottom=0;right=0;points=[[0,0.5],[1,0.5]];portConstraint=eastwest;" vertex="1" parent="TwVaYqzp6_XDLZO7_l7G-2">
          <mxGeometry y="120" width="180" height="30" as="geometry" />
        </mxCell>
        <mxCell id="TwVaYqzp6_XDLZO7_l7G-13" value="" style="shape=partialRectangle;connectable=0;fillColor=none;top=0;left=0;bottom=0;right=0;editable=1;overflow=hidden;" vertex="1" parent="TwVaYqzp6_XDLZO7_l7G-12">
          <mxGeometry width="30" height="30" as="geometry" />
        </mxCell>
        <mxCell id="TwVaYqzp6_XDLZO7_l7G-14" value="Row 3" style="shape=partialRectangle;connectable=0;fillColor=none;top=0;left=0;bottom=0;right=0;align=left;spacingLeft=6;overflow=hidden;" vertex="1" parent="TwVaYqzp6_XDLZO7_l7G-12">
          <mxGeometry x="30" width="150" height="30" as="geometry" />
        </mxCell>
        <mxCell id="TwVaYqzp6_XDLZO7_l7G-61" style="edgeStyle=orthogonalEdgeStyle;rounded=0;orthogonalLoop=1;jettySize=auto;html=1;exitX=0.5;exitY=1;exitDx=0;exitDy=0;entryX=0.75;entryY=0;entryDx=0;entryDy=0;endArrow=ERmany;endFill=0;" edge="1" parent="1" source="TwVaYqzp6_XDLZO7_l7G-15" target="TwVaYqzp6_XDLZO7_l7G-41">
          <mxGeometry relative="1" as="geometry" />
        </mxCell>
        <mxCell id="TwVaYqzp6_XDLZO7_l7G-62" style="edgeStyle=orthogonalEdgeStyle;rounded=0;orthogonalLoop=1;jettySize=auto;html=1;exitX=0.75;exitY=1;exitDx=0;exitDy=0;endArrow=ERmany;endFill=0;" edge="1" parent="1" source="TwVaYqzp6_XDLZO7_l7G-15" target="TwVaYqzp6_XDLZO7_l7G-38">
          <mxGeometry relative="1" as="geometry" />
        </mxCell>
        <mxCell id="TwVaYqzp6_XDLZO7_l7G-15" value="Howtodo" style="shape=table;startSize=30;container=1;collapsible=1;childLayout=tableLayout;fixedRows=1;rowLines=0;fontStyle=1;align=center;resizeLast=1;" vertex="1" parent="1">
          <mxGeometry x="540" y="480" width="180" height="160" as="geometry" />
        </mxCell>
        <mxCell id="TwVaYqzp6_XDLZO7_l7G-16" value="" style="shape=partialRectangle;collapsible=0;dropTarget=0;pointerEvents=0;fillColor=none;top=0;left=0;bottom=1;right=0;points=[[0,0.5],[1,0.5]];portConstraint=eastwest;" vertex="1" parent="TwVaYqzp6_XDLZO7_l7G-15">
          <mxGeometry y="30" width="180" height="30" as="geometry" />
        </mxCell>
        <mxCell id="TwVaYqzp6_XDLZO7_l7G-17" value="PK" style="shape=partialRectangle;connectable=0;fillColor=none;top=0;left=0;bottom=0;right=0;fontStyle=1;overflow=hidden;" vertex="1" parent="TwVaYqzp6_XDLZO7_l7G-16">
          <mxGeometry width="30" height="30" as="geometry" />
        </mxCell>
        <mxCell id="TwVaYqzp6_XDLZO7_l7G-18" value="Howto_id" style="shape=partialRectangle;connectable=0;fillColor=none;top=0;left=0;bottom=0;right=0;align=left;spacingLeft=6;fontStyle=5;overflow=hidden;" vertex="1" parent="TwVaYqzp6_XDLZO7_l7G-16">
          <mxGeometry x="30" width="150" height="30" as="geometry" />
        </mxCell>
        <mxCell id="TwVaYqzp6_XDLZO7_l7G-19" value="" style="shape=partialRectangle;collapsible=0;dropTarget=0;pointerEvents=0;fillColor=none;top=0;left=0;bottom=0;right=0;points=[[0,0.5],[1,0.5]];portConstraint=eastwest;" vertex="1" parent="TwVaYqzp6_XDLZO7_l7G-15">
          <mxGeometry y="60" width="180" height="30" as="geometry" />
        </mxCell>
        <mxCell id="TwVaYqzp6_XDLZO7_l7G-20" value="" style="shape=partialRectangle;connectable=0;fillColor=none;top=0;left=0;bottom=0;right=0;editable=1;overflow=hidden;" vertex="1" parent="TwVaYqzp6_XDLZO7_l7G-19">
          <mxGeometry width="30" height="30" as="geometry" />
        </mxCell>
        <mxCell id="TwVaYqzp6_XDLZO7_l7G-21" value="title: string" style="shape=partialRectangle;connectable=0;fillColor=none;top=0;left=0;bottom=0;right=0;align=left;spacingLeft=6;overflow=hidden;" vertex="1" parent="TwVaYqzp6_XDLZO7_l7G-19">
          <mxGeometry x="30" width="150" height="30" as="geometry" />
        </mxCell>
        <mxCell id="TwVaYqzp6_XDLZO7_l7G-22" value="" style="shape=partialRectangle;collapsible=0;dropTarget=0;pointerEvents=0;fillColor=none;top=0;left=0;bottom=0;right=0;points=[[0,0.5],[1,0.5]];portConstraint=eastwest;" vertex="1" parent="TwVaYqzp6_XDLZO7_l7G-15">
          <mxGeometry y="90" width="180" height="30" as="geometry" />
        </mxCell>
        <mxCell id="TwVaYqzp6_XDLZO7_l7G-23" value="" style="shape=partialRectangle;connectable=0;fillColor=none;top=0;left=0;bottom=0;right=0;editable=1;overflow=hidden;" vertex="1" parent="TwVaYqzp6_XDLZO7_l7G-22">
          <mxGeometry width="30" height="30" as="geometry" />
        </mxCell>
        <mxCell id="TwVaYqzp6_XDLZO7_l7G-24" value="description: text" style="shape=partialRectangle;connectable=0;fillColor=none;top=0;left=0;bottom=0;right=0;align=left;spacingLeft=6;overflow=hidden;" vertex="1" parent="TwVaYqzp6_XDLZO7_l7G-22">
          <mxGeometry x="30" width="150" height="30" as="geometry" />
        </mxCell>
        <mxCell id="TwVaYqzp6_XDLZO7_l7G-25" value="" style="shape=partialRectangle;collapsible=0;dropTarget=0;pointerEvents=0;fillColor=none;top=0;left=0;bottom=0;right=0;points=[[0,0.5],[1,0.5]];portConstraint=eastwest;" vertex="1" parent="TwVaYqzp6_XDLZO7_l7G-15">
          <mxGeometry y="120" width="180" height="30" as="geometry" />
        </mxCell>
        <mxCell id="TwVaYqzp6_XDLZO7_l7G-26" value="" style="shape=partialRectangle;connectable=0;fillColor=none;top=0;left=0;bottom=0;right=0;editable=1;overflow=hidden;" vertex="1" parent="TwVaYqzp6_XDLZO7_l7G-25">
          <mxGeometry width="30" height="30" as="geometry" />
        </mxCell>
        <mxCell id="TwVaYqzp6_XDLZO7_l7G-27" value="Row 3" style="shape=partialRectangle;connectable=0;fillColor=none;top=0;left=0;bottom=0;right=0;align=left;spacingLeft=6;overflow=hidden;" vertex="1" parent="TwVaYqzp6_XDLZO7_l7G-25">
          <mxGeometry x="30" width="150" height="30" as="geometry" />
        </mxCell>
        <mxCell id="TwVaYqzp6_XDLZO7_l7G-28" value="Comment" style="shape=table;startSize=30;container=1;collapsible=1;childLayout=tableLayout;fixedRows=1;rowLines=0;fontStyle=1;align=center;resizeLast=1;" vertex="1" parent="1">
          <mxGeometry x="180" y="760" width="180" height="160" as="geometry" />
        </mxCell>
        <mxCell id="TwVaYqzp6_XDLZO7_l7G-29" value="" style="shape=partialRectangle;collapsible=0;dropTarget=0;pointerEvents=0;fillColor=none;top=0;left=0;bottom=1;right=0;points=[[0,0.5],[1,0.5]];portConstraint=eastwest;" vertex="1" parent="TwVaYqzp6_XDLZO7_l7G-28">
          <mxGeometry y="30" width="180" height="30" as="geometry" />
        </mxCell>
        <mxCell id="TwVaYqzp6_XDLZO7_l7G-30" value="PK" style="shape=partialRectangle;connectable=0;fillColor=none;top=0;left=0;bottom=0;right=0;fontStyle=1;overflow=hidden;" vertex="1" parent="TwVaYqzp6_XDLZO7_l7G-29">
          <mxGeometry width="30" height="30" as="geometry" />
        </mxCell>
        <mxCell id="TwVaYqzp6_XDLZO7_l7G-31" value="UniqueID" style="shape=partialRectangle;connectable=0;fillColor=none;top=0;left=0;bottom=0;right=0;align=left;spacingLeft=6;fontStyle=5;overflow=hidden;" vertex="1" parent="TwVaYqzp6_XDLZO7_l7G-29">
          <mxGeometry x="30" width="150" height="30" as="geometry" />
        </mxCell>
        <mxCell id="TwVaYqzp6_XDLZO7_l7G-32" value="" style="shape=partialRectangle;collapsible=0;dropTarget=0;pointerEvents=0;fillColor=none;top=0;left=0;bottom=0;right=0;points=[[0,0.5],[1,0.5]];portConstraint=eastwest;" vertex="1" parent="TwVaYqzp6_XDLZO7_l7G-28">
          <mxGeometry y="60" width="180" height="30" as="geometry" />
        </mxCell>
        <mxCell id="TwVaYqzp6_XDLZO7_l7G-33" value="" style="shape=partialRectangle;connectable=0;fillColor=none;top=0;left=0;bottom=0;right=0;editable=1;overflow=hidden;" vertex="1" parent="TwVaYqzp6_XDLZO7_l7G-32">
          <mxGeometry width="30" height="30" as="geometry" />
        </mxCell>
        <mxCell id="TwVaYqzp6_XDLZO7_l7G-34" value="content: text" style="shape=partialRectangle;connectable=0;fillColor=none;top=0;left=0;bottom=0;right=0;align=left;spacingLeft=6;overflow=hidden;" vertex="1" parent="TwVaYqzp6_XDLZO7_l7G-32">
          <mxGeometry x="30" width="150" height="30" as="geometry" />
        </mxCell>
        <mxCell id="TwVaYqzp6_XDLZO7_l7G-35" value="" style="shape=partialRectangle;collapsible=0;dropTarget=0;pointerEvents=0;fillColor=none;top=0;left=0;bottom=0;right=0;points=[[0,0.5],[1,0.5]];portConstraint=eastwest;" vertex="1" parent="TwVaYqzp6_XDLZO7_l7G-28">
          <mxGeometry y="90" width="180" height="30" as="geometry" />
        </mxCell>
        <mxCell id="TwVaYqzp6_XDLZO7_l7G-36" value="" style="shape=partialRectangle;connectable=0;fillColor=none;top=0;left=0;bottom=0;right=0;editable=1;overflow=hidden;" vertex="1" parent="TwVaYqzp6_XDLZO7_l7G-35">
          <mxGeometry width="30" height="30" as="geometry" />
        </mxCell>
        <mxCell id="TwVaYqzp6_XDLZO7_l7G-37" value="user_id: references" style="shape=partialRectangle;connectable=0;fillColor=none;top=0;left=0;bottom=0;right=0;align=left;spacingLeft=6;overflow=hidden;" vertex="1" parent="TwVaYqzp6_XDLZO7_l7G-35">
          <mxGeometry x="30" width="150" height="30" as="geometry" />
        </mxCell>
        <mxCell id="TwVaYqzp6_XDLZO7_l7G-38" value="" style="shape=partialRectangle;collapsible=0;dropTarget=0;pointerEvents=0;fillColor=none;top=0;left=0;bottom=0;right=0;points=[[0,0.5],[1,0.5]];portConstraint=eastwest;" vertex="1" parent="TwVaYqzp6_XDLZO7_l7G-28">
          <mxGeometry y="120" width="180" height="30" as="geometry" />
        </mxCell>
        <mxCell id="TwVaYqzp6_XDLZO7_l7G-39" value="" style="shape=partialRectangle;connectable=0;fillColor=none;top=0;left=0;bottom=0;right=0;editable=1;overflow=hidden;" vertex="1" parent="TwVaYqzp6_XDLZO7_l7G-38">
          <mxGeometry width="30" height="30" as="geometry" />
        </mxCell>
        <mxCell id="TwVaYqzp6_XDLZO7_l7G-40" value="Howto_id: references" style="shape=partialRectangle;connectable=0;fillColor=none;top=0;left=0;bottom=0;right=0;align=left;spacingLeft=6;overflow=hidden;" vertex="1" parent="TwVaYqzp6_XDLZO7_l7G-38">
          <mxGeometry x="30" width="150" height="30" as="geometry" />
        </mxCell>
        <mxCell id="TwVaYqzp6_XDLZO7_l7G-41" value="Rating" style="shape=table;startSize=30;container=1;collapsible=1;childLayout=tableLayout;fixedRows=1;rowLines=0;fontStyle=1;align=center;resizeLast=1;" vertex="1" parent="1">
          <mxGeometry x="410" y="720" width="180" height="160" as="geometry" />
        </mxCell>
        <mxCell id="TwVaYqzp6_XDLZO7_l7G-42" value="" style="shape=partialRectangle;collapsible=0;dropTarget=0;pointerEvents=0;fillColor=none;top=0;left=0;bottom=1;right=0;points=[[0,0.5],[1,0.5]];portConstraint=eastwest;" vertex="1" parent="TwVaYqzp6_XDLZO7_l7G-41">
          <mxGeometry y="30" width="180" height="30" as="geometry" />
        </mxCell>
        <mxCell id="TwVaYqzp6_XDLZO7_l7G-43" value="PK" style="shape=partialRectangle;connectable=0;fillColor=none;top=0;left=0;bottom=0;right=0;fontStyle=1;overflow=hidden;" vertex="1" parent="TwVaYqzp6_XDLZO7_l7G-42">
          <mxGeometry width="30" height="30" as="geometry" />
        </mxCell>
        <mxCell id="TwVaYqzp6_XDLZO7_l7G-44" value="UniqueID" style="shape=partialRectangle;connectable=0;fillColor=none;top=0;left=0;bottom=0;right=0;align=left;spacingLeft=6;fontStyle=5;overflow=hidden;" vertex="1" parent="TwVaYqzp6_XDLZO7_l7G-42">
          <mxGeometry x="30" width="150" height="30" as="geometry" />
        </mxCell>
        <mxCell id="TwVaYqzp6_XDLZO7_l7G-45" value="" style="shape=partialRectangle;collapsible=0;dropTarget=0;pointerEvents=0;fillColor=none;top=0;left=0;bottom=0;right=0;points=[[0,0.5],[1,0.5]];portConstraint=eastwest;" vertex="1" parent="TwVaYqzp6_XDLZO7_l7G-41">
          <mxGeometry y="60" width="180" height="30" as="geometry" />
        </mxCell>
        <mxCell id="TwVaYqzp6_XDLZO7_l7G-46" value="" style="shape=partialRectangle;connectable=0;fillColor=none;top=0;left=0;bottom=0;right=0;editable=1;overflow=hidden;" vertex="1" parent="TwVaYqzp6_XDLZO7_l7G-45">
          <mxGeometry width="30" height="30" as="geometry" />
        </mxCell>
        <mxCell id="TwVaYqzp6_XDLZO7_l7G-47" value="rate: integer" style="shape=partialRectangle;connectable=0;fillColor=none;top=0;left=0;bottom=0;right=0;align=left;spacingLeft=6;overflow=hidden;" vertex="1" parent="TwVaYqzp6_XDLZO7_l7G-45">
          <mxGeometry x="30" width="150" height="30" as="geometry" />
        </mxCell>
        <mxCell id="TwVaYqzp6_XDLZO7_l7G-48" value="" style="shape=partialRectangle;collapsible=0;dropTarget=0;pointerEvents=0;fillColor=none;top=0;left=0;bottom=0;right=0;points=[[0,0.5],[1,0.5]];portConstraint=eastwest;" vertex="1" parent="TwVaYqzp6_XDLZO7_l7G-41">
          <mxGeometry y="90" width="180" height="30" as="geometry" />
        </mxCell>
        <mxCell id="TwVaYqzp6_XDLZO7_l7G-49" value="" style="shape=partialRectangle;connectable=0;fillColor=none;top=0;left=0;bottom=0;right=0;editable=1;overflow=hidden;" vertex="1" parent="TwVaYqzp6_XDLZO7_l7G-48">
          <mxGeometry width="30" height="30" as="geometry" />
        </mxCell>
        <mxCell id="TwVaYqzp6_XDLZO7_l7G-50" value="Howto_id : references" style="shape=partialRectangle;connectable=0;fillColor=none;top=0;left=0;bottom=0;right=0;align=left;spacingLeft=6;overflow=hidden;" vertex="1" parent="TwVaYqzp6_XDLZO7_l7G-48">
          <mxGeometry x="30" width="150" height="30" as="geometry" />
        </mxCell>
        <mxCell id="TwVaYqzp6_XDLZO7_l7G-51" value="" style="shape=partialRectangle;collapsible=0;dropTarget=0;pointerEvents=0;fillColor=none;top=0;left=0;bottom=0;right=0;points=[[0,0.5],[1,0.5]];portConstraint=eastwest;" vertex="1" parent="TwVaYqzp6_XDLZO7_l7G-41">
          <mxGeometry y="120" width="180" height="30" as="geometry" />
        </mxCell>
        <mxCell id="TwVaYqzp6_XDLZO7_l7G-52" value="" style="shape=partialRectangle;connectable=0;fillColor=none;top=0;left=0;bottom=0;right=0;editable=1;overflow=hidden;" vertex="1" parent="TwVaYqzp6_XDLZO7_l7G-51">
          <mxGeometry width="30" height="30" as="geometry" />
        </mxCell>
        <mxCell id="TwVaYqzp6_XDLZO7_l7G-53" value="user_id: referneces" style="shape=partialRectangle;connectable=0;fillColor=none;top=0;left=0;bottom=0;right=0;align=left;spacingLeft=6;overflow=hidden;" vertex="1" parent="TwVaYqzp6_XDLZO7_l7G-51">
          <mxGeometry x="30" width="150" height="30" as="geometry" />
        </mxCell>
        <mxCell id="TwVaYqzp6_XDLZO7_l7G-59" style="edgeStyle=orthogonalEdgeStyle;rounded=0;orthogonalLoop=1;jettySize=auto;html=1;exitX=1;exitY=0.5;exitDx=0;exitDy=0;endArrow=ERoneToMany;endFill=0;" edge="1" parent="1" source="TwVaYqzp6_XDLZO7_l7G-6" target="TwVaYqzp6_XDLZO7_l7G-19">
          <mxGeometry relative="1" as="geometry" />
        </mxCell>
        <mxCell id="TwVaYqzp6_XDLZO7_l7G-60" style="edgeStyle=orthogonalEdgeStyle;rounded=0;orthogonalLoop=1;jettySize=auto;html=1;exitX=1;exitY=0.5;exitDx=0;exitDy=0;endArrow=ERoneToMany;endFill=0;" edge="1" parent="1" source="TwVaYqzp6_XDLZO7_l7G-9" target="TwVaYqzp6_XDLZO7_l7G-41">
          <mxGeometry relative="1" as="geometry" />
        </mxCell>
      </root>
    </mxGraphModel>
  </diagram>
</mxfile>
